<svg width="12" height="12" viewBox="0 0 12 12" fill="none" xmlns="http://www.w3.org/2000/svg">
<path d="M4.87833 4.83331C4.99588 4.49915 5.2279 4.21737 5.53331 4.03788C5.83871 3.85839 6.19778 3.79278 6.54692 3.85267C6.89606 3.91256 7.21274 4.09408 7.44087 4.36508C7.669 4.63608 7.79386 4.97907 7.79333 5.33331C7.79333 6.33331 6.29333 6.83331 6.29333 6.83331M6.33333 8.83331H6.33833M11.3333 6.33331C11.3333 9.09474 9.09475 11.3333 6.33333 11.3333C3.5719 11.3333 1.33333 9.09474 1.33333 6.33331C1.33333 3.57189 3.5719 1.33331 6.33333 1.33331C9.09475 1.33331 11.3333 3.57189 11.3333 6.33331Z" stroke="#98A2B3" stroke-width="1.33333" stroke-linecap="round" stroke-linejoin="round"/>
</svg>
